HIERARCHY
ROOT Hips
{
	OFFSET 0.000000 0.000000 0.000000
	CHANNELS 6 Xposition Yposition Zposition Xrotation Yrotation Zrotation
	JOINT LeftUpLeg_virtual
	{
		OFFSET 0.000000 0.000000 0.000000
		CHANNELS 3 Xrotation Yrotation Zrotation
		JOINT LeftUpLeg
		{
			OFFSET 10.205400 -3.823500 0.155100
			CHANNELS 3 Xrotation Yrotation Zrotation
			JOINT LeftLeg
			{
				OFFSET 0.708757 -12.982077 0.567790
				CHANNELS 3 Xrotation Yrotation Zrotation
				JOINT LeftFoot
				{
					OFFSET -0.708756 -10.717838 -2.184338
					CHANNELS 3 Xrotation Yrotation Zrotation
					JOINT LeftToeBase
					{
						OFFSET 0.108149 -7.191104 7.560241
						CHANNELS 3 Xrotation Yrotation Zrotation
						JOINT LeftToe_End
						{
							OFFSET 0.070230 0.081724 4.490308
							CHANNELS 3 Xrotation Yrotation Zrotation
							End Site
							{
								OFFSET 0 0 0
							}
						}
					}
				}
			}
		}
	}
	JOINT RightUpLeg_virtual
	{
		OFFSET 0.000000 0.000000 0.000000
		CHANNELS 3 Xrotation Yrotation Zrotation
		JOINT RightUpLeg
		{
			OFFSET -10.205400 -3.823500 0.005500
			CHANNELS 3 Xrotation Yrotation Zrotation
			JOINT RightLeg
			{
				OFFSET -0.708756 -12.982134 0.610632
				CHANNELS 3 Xrotation Yrotation Zrotation
				JOINT RightFoot
				{
					OFFSET 0.708754 -10.717769 -1.945823
					CHANNELS 3 Xrotation Yrotation Zrotation
					JOINT RightToeBase
					{
						OFFSET -0.108140 -7.191069 7.372968
						CHANNELS 3 Xrotation Yrotation Zrotation
						JOINT RightToe_End
						{
							OFFSET -0.070227 0.081735 4.479403
							CHANNELS 3 Xrotation Yrotation Zrotation
							End Site
							{
								OFFSET 0 0 0
							}
						}
					}
				}
			}
		}
	}
	JOINT Spine_virtual
	{
		OFFSET 0.000000 0.000000 0.000000
		CHANNELS 3 Xrotation Yrotation Zrotation
		JOINT Spine
		{
			OFFSET 0.000000 6.876099 0.125700
			CHANNELS 3 Xrotation Yrotation Zrotation
			JOINT Spine1
			{
				OFFSET 0.000000 5.730043 0.104720
				CHANNELS 3 Xrotation Yrotation Zrotation
				JOINT Spine1_split
				{
					OFFSET 0.000000 5.730043 0.104720
					CHANNELS 3 Xrotation Yrotation Zrotation
					JOINT Spine2
					{
						OFFSET 0.000000 5.730043 0.104720
						CHANNELS 3 Xrotation Yrotation Zrotation
						JOINT Neck_virtual
						{
							OFFSET 0.000000 0.000000 0.000000
							CHANNELS 3 Xrotation Yrotation Zrotation
							JOINT Neck
							{
								OFFSET 0.000000 10.314075 0.188496
								CHANNELS 3 Xrotation Yrotation Zrotation
								JOINT Head
								{
									OFFSET 0.000000 7.643700 -2.377400
									CHANNELS 3 Xrotation Yrotation Zrotation
									JOINT HeadTop_End
									{
										OFFSET 0.000000 43.788605 -13.619600
										CHANNELS 3 Xrotation Yrotation Zrotation
										End Site
										{
											OFFSET 0 0 0
										}
									}
								}
							}
						}
						JOINT LeftShoulder_virtual
						{
							OFFSET 0.000000 0.000000 0.000000
							CHANNELS 3 Xrotation Yrotation Zrotation
							JOINT LeftShoulder
							{
								OFFSET 2.196100 4.412489 0.087492
								CHANNELS 3 Xrotation Yrotation Zrotation
								JOINT LeftShoulder_split
								{
									OFFSET 2.196100 4.412489 0.087492
									CHANNELS 3 Xrotation Yrotation Zrotation
									JOINT LeftArm
									{
										OFFSET 8.771219 -2.981674 -0.026999
										CHANNELS 3 Xrotation Yrotation Zrotation
										JOINT LeftForeArm
										{
											OFFSET 8.512804 0.000000 -0.000000
											CHANNELS 3 Xrotation Yrotation Zrotation
											JOINT LeftHand
											{
												OFFSET 18.484802 0.000000 -0.000000
												CHANNELS 3 Xrotation Yrotation Zrotation
												End Site
												{
													OFFSET 0 0 0
												}
											}
										}
									}
								}
							}
						}
						JOINT RightShoulder_virtual
						{
							OFFSET 0.000000 0.000000 0.000000
							CHANNELS 3 Xrotation Yrotation Zrotation
							JOINT RightShoulder
							{
								OFFSET -2.196100 4.412496 0.070690
								CHANNELS 3 Xrotation Yrotation Zrotation
								JOINT RightShoulder_split
								{
									OFFSET -2.196100 4.412496 0.070690
									CHANNELS 3 Xrotation Yrotation Zrotation
									JOINT RightArm
									{
										OFFSET -8.771282 -2.981682 -0.094208
										CHANNELS 3 Xrotation Yrotation Zrotation
										JOINT RightForeArm
										{
											OFFSET -8.494598 0.000000 0.000000
											CHANNELS 3 Xrotation Yrotation Zrotation
											JOINT RightHand
											{
												OFFSET -18.483803 0.000000 0.000001
												CHANNELS 3 Xrotation Yrotation Zrotation
												End Site
												{
													OFFSET 0 0 0
												}
											}
										}
									}
								}
							}
						}
					}
				}
			}
		}
	}
}
MOTION
Frames: 4
Frame Time: 0.03333333
25.994375 34.110043 65.191200 0.000000 0.000000 0.000000 -8.385328 37.695606 9.849459 -20.335266 8.012846 -17.425455 29.789027 -9.975747 -0.248814 27.198684 2.735433 16.202452 -27.937753 -0.042838 5.958993 0.000000 0.000000 0.000000 -7.843876 40.428730 9.640984 -10.537208 14.693281 2.093241 50.925259 -5.065884 -3.280450 15.575309 -7.142792 -5.663441 -47.808667 0.013224 6.903227 0.000000 0.000000 0.000000 -7.818269 38.169672 9.167313 3.706965 -1.792916 -4.901450 -1.694418 -1.370161 0.915521 0.709010 0.759999 0.018035 0.000000 0.000000 0.000000 -1.659838 -1.209943 1.133346 -8.932523 3.543272 2.315004 6.294103 7.105636 -3.183545 0.000000 0.000000 0.000000 -2.064228 -0.892758 1.250548 1.054156 8.834335 -3.306704 0.854428 2.940604 -1.128247 6.408593 -8.763013 -68.073784 12.146947 -24.862169 4.424871 0.000000 0.000000 0.000000 -1.738655 -1.251135 1.130270 0.679608 1.964848 3.412695 1.447687 1.458905 -3.075541 -0.448206 7.768892 78.009230 11.513229 15.672870 -3.168172 0.000000 0.000000 0.000000 
27.090685 34.428406 66.371529 0.000000 0.000000 0.000000 -7.521947 39.418938 8.256830 -16.309214 5.932824 -16.649064 28.194024 -9.873371 0.026577 20.540826 5.010518 17.358376 -24.535409 1.020844 3.298260 0.000000 0.000000 0.000000 -7.343827 41.636990 8.154911 -18.426925 14.569999 2.756313 46.953077 -4.590319 -3.222783 17.446745 -6.302590 -6.414640 -38.833597 0.186800 7.345057 0.000000 0.000000 0.000000 -7.301535 39.054383 7.879270 4.375203 -2.352113 -4.452239 -1.982615 -1.760321 1.062220 0.792556 0.860166 -0.106083 0.000000 0.000000 0.000000 -1.750207 -1.563996 1.330759 -8.904092 3.586514 2.736056 6.467562 7.377412 -3.742778 0.000000 0.000000 0.000000 -2.120494 -1.320724 1.440640 0.902206 7.690401 -3.056827 0.764979 3.387664 -0.978867 5.135572 -10.810231 -67.886022 12.270682 -25.087577 4.653318 0.000000 0.000000 0.000000 -1.975082 -1.638806 1.331341 0.369416 0.858966 4.151669 1.885164 1.698626 -3.153554 -0.260114 6.638913 77.236107 11.300297 15.631819 -3.272945 0.000000 0.000000 0.000000 
28.281055 34.673443 67.532852 0.000000 0.000000 0.000000 -6.636086 41.422437 6.810826 -11.576002 5.303557 -15.627198 25.808218 -10.629630 -0.101210 13.087637 5.312281 18.840028 -22.694007 1.668313 1.411726 0.000000 0.000000 0.000000 -6.536880 42.997421 6.694877 -24.794075 13.108035 2.394255 40.905941 -2.633882 -3.211304 22.945870 -3.706485 -3.948275 -34.554231 0.581345 5.803650 0.000000 0.000000 0.000000 -6.716096 40.294073 6.753890 4.887011 -2.770218 -4.318416 -2.229806 -2.091901 1.205786 1.014205 1.003392 -0.300665 0.000000 0.000000 0.000000 -1.870748 -1.895887 1.504539 -8.883027 3.424078 3.501552 6.397021 7.535794 -4.195292 0.000000 0.000000 0.000000 -2.245557 -1.707328 1.584310 0.759694 6.499036 -2.793734 0.689515 3.591592 -0.860789 3.778410 -12.764453 -67.804927 12.324167 -25.179311 4.898359 0.000000 0.000000 0.000000 -2.162648 -1.999146 1.501469 0.076048 -0.219131 5.031741 2.299928 2.011410 -3.157900 0.143676 5.575833 76.441599 11.172396 15.692599 -3.445353 0.000000 0.000000 0.000000 
29.499989 34.776428 68.639458 0.000000 0.000000 0.000000 -6.032289 43.953319 5.969795 -7.319029 6.291468 -14.133822 23.595430 -13.112846 -0.751196 8.858001 3.068662 19.486344 -23.786342 1.560788 1.495529 0.000000 0.000000 0.000000 -5.636527 45.129406 5.658786 -29.161766 10.864576 1.270679 33.254395 -0.079879 -2.874131 28.907498 -0.090108 -0.710562 -32.929708 0.946334 3.099465 0.000000 0.000000 0.000000 -6.386992 42.190622 6.207341 5.247248 -3.124454 -4.654903 -2.372914 -2.380255 1.396002 1.000511 1.077288 -0.358757 0.000000 0.000000 0.000000 -2.025129 -2.180674 1.697472 -8.946533 3.058028 4.527554 6.103743 7.572790 -4.440934 0.000000 0.000000 0.000000 -2.417513 -2.025043 1.736192 0.618347 5.376476 -2.400285 0.654291 3.576674 -0.797484 2.381311 -14.400940 -67.861426 12.277826 -25.437824 5.138869 0.000000 0.000000 0.000000 -2.300610 -2.304750 1.684090 -0.173287 -1.241783 5.955202 2.749943 2.401709 -3.111106 0.793124 4.756870 75.579656 11.167759 15.771489 -3.675760 0.000000 0.000000 0.000000 
